<?xml version="1.0" encoding="UTF-8"?>
<svg id="Warstwa_1" data-name="Warstwa 1" xmlns="http://www.w3.org/2000/svg" viewBox="0 0 1781.0396 428.622">
  <defs>
    <style>
      .cls-1 {
        stroke: #29abe2;
      }

      .cls-1, .cls-2, .cls-3, .cls-4 {
        stroke-linecap: round;
      }

      .cls-1, .cls-2, .cls-3, .cls-5 {
        fill: none;
        stroke-width: 20px;
      }

      .cls-1, .cls-2, .cls-4, .cls-5 {
        stroke-miterlimit: 10;
      }

      .cls-2, .cls-3, .cls-4, .cls-5 {
        stroke: #fff;
      }

      .cls-3 {
        stroke-miterlimit: 1;
      }

      .cls-4 {
        fill: #29abe2;
        stroke-width: 11px;
      }
    </style>
  </defs>
  <path class="cls-1" d="M221.0404,270h-125l1,128H10.0404L11.5404,26l208.5-1h0"/>
  <polyline class="cls-1" points="190.0404 88 95.0404 88 95.0404 203 191.4428 203"/>
  <path class="cls-1" d="M189.0404,88c32.5848,0,59,25.7436,59,57.5s-26.4152,57.5-59,57.5"/>
  <path class="cls-1" d="M211.8943,24.6915c69.5072,0,125.8539,54.9142,125.8539,122.6543s-56.3467,122.6543-125.8539,122.6543"/>
  <path class="cls-1" d="M569.0404,319.25c0,43.3544-35.1456,78.5-78.5,78.5"/>
  <polyline class="cls-1" points="482.0404 322 482.0404 25 569.0404 25 569.0404 324"/>
  <polyline class="cls-1" points="491.0404 398 360.0404 398 360.0404 324 482.0404 324"/>
  <path class="cls-2" d="M1013.0404,262l42.9613,146.4311c1.494,5.0921-2.3238,10.1909-7.6305,10.1909h-76.1819c-2.905,0-5.4597-1.9215-6.2655-4.7125l-24.1625-83.6951c-1.0625-3.6805-4.4314-6.2144-8.2622-6.2144h-128.2026c-4.8319,0-9.0813,3.1961-10.4215,7.8384l-23.2978,80.6998c-1.0402,3.6031-4.3383,6.0837-8.0886,6.0837h-81.7037c-.3763,0-.6508-.3561-.555-.72l11.9668-45.439c.6496-2.4667-1.2108-4.8805-3.7616-4.8805h-26.3948"/>
  <path class="cls-3" d="M825.443,230.9261l-4.0198,15.6784c-.4412,1.7207.8585,3.3956,2.6348,3.3956h91.3382c1.342,0,2.2941-1.3086,1.8811-2.5855l-45.9633-142.1001c-.1004-.3105-.5267-.3434-.6736-.0519l-17.1,33.9448"/>
  <path class="cls-5" d="M980.5526,153.5l-45.4442-141.8312c-.1277-.3985-.4982-.6688-.9166-.6688h-128.4154c-.4389,0-.828.2825-.9639.6998l-70.1136,215.3002"/>
  <path class="cls-2" d="M1225.0404,160.7932v253.7555c0,1.3538-1.0974,2.4512-2.4512,2.4512h-96.8537c-.9362,0-1.6951-.7589-1.6951-1.6951v-67.3049"/>
  <path class="cls-2" d="M1124.0404,247.7439c.9898-77.9426-1.9394-157.1159.9103-235.3319.049-1.3459,1.1573-2.412,2.5041-2.412h95.0856c1.3807,0,2.5,1.1193,2.5,2.5v34.3849"/>
  <path class="cls-2" d="M1225.0404,46.5c0,.5,46.5,0,46.5,0"/>
  <polyline class="cls-1" points="1581.0404 32 1396.0404 32 1396.0404 410 1582.0404 410"/>
  <path class="cls-1" d="M1581.2003,32c102.6354,0,186.2475,81.0878,189.7274,182.425,3.6619,106.6366-82.9985,195.8188-190.1714,195.5745"/>
  <polyline class="cls-1" points="1585.0404 340 1482.0404 340 1482.0404 101 1585.0404 101"/>
  <path class="cls-1" d="M1585.0404,101c66.2742,0,120,53.7258,120,120s-53.7258,120-120,120"/>
  <circle class="cls-4" cx="1124.5404" cy="267.5" r="23"/>
  <circle class="cls-4" cx="1226.5404" cy="143.5" r="23"/>
  <circle class="cls-4" cx="830.5404" cy="208.5" r="23"/>
  <circle class="cls-4" cx="640.5404" cy="367.5" r="23"/>
  <circle class="cls-4" cx="732.0404" cy="250" r="23"/>
  <circle class="cls-4" cx="1294.5404" cy="46.5" r="23"/>
  <circle class="cls-4" cx="987.5404" cy="176.5" r="23"/>
</svg>